<svg id="Layer_1" data-name="Layer 1" xmlns="http://www.w3.org/2000/svg" viewBox="0 0 150 135"><defs><style>.cls-1{fill:#231f20;}</style></defs><title>Artboard 1</title><g id="_Group_" data-name="&lt;Group&gt;"><g id="_Group_2" data-name="&lt;Group&gt;"><path id="_Path_" data-name="&lt;Path&gt;" class="cls-1" d="M93.05,73.18a17.48,17.48,0,0,0-1-2.6,16.21,16.21,0,0,0-4.85-5.44c-.52-.42-1.42-1.56-2.13-1.58-1.06,0-.13,1.09.18,1.43,1.77,2,3.61,3.65,5,6,.75,1.27.68,2.4,1.14,3.72.22.62.84,3.12,1.63,1.68A4.29,4.29,0,0,0,93.05,73.18Z"/><path id="_Compound_Path_" data-name="&lt;Compound Path&gt;" class="cls-1" d="M98.21,51.95c1.49.12.44-.83-.56-.84.36-.45,1.59-2.47.65-2.86-.38-.16-1.12.58-1.4.78,0-.09-.13-.15-.16-.23a1.08,1.08,0,0,1-.31.3c-.71-.75.28-2-.8-2.6s-1.18.41-.79,1.13A5.56,5.56,0,0,0,92.38,47a20.24,20.24,0,0,1-4.92-1.75c-2.21-1-5.26-3.1-7.51-2-.59.28-2.7.89-3.1-.15-.51-1.31,1.78-2,2.56-2.14,2.9-.67,6-2,9-.83a9.11,9.11,0,0,1,3.24,2.2c1.67,1.64,1.56-1.33.43-1.5a5.68,5.68,0,0,0-2-4.41,6.9,6.9,0,0,0-3.94-.73,24.32,24.32,0,0,1-4.77-.4,5,5,0,0,0-3.13.22c-.95.41-1.7,1.13-2.79.63a3.4,3.4,0,0,1-1.35,1.57c-.39.24-1.42.33-1.68.64-.41.48-.09,1.87-.15,2.61a20.69,20.69,0,0,0,.39,5.7,4,4,0,0,0,.68,2.22c.39.45,1.47,1.12,1.53.12a43.33,43.33,0,0,0,11.23,5.53c1.65.51,6,2.29,7.58,1.14,1.79-1.27-1.2-3-2.57-1.95-.83-.54-1.87-.31-2.8-.33a9.2,9.2,0,0,1-3.75-1.1C84,52,80.36,50.78,81.1,50c.52-.58,4.21.84,5,.94s3.88.62,3.94-.53c0-.8-.78-.84-1.37-.9-.8-.09-1.64.26-2.43.14-1.08-.16-1.28-.76,0-.89,1.58-.16,2.9.56,4.36.9.61.14,4.08.21,2.45,1.8-.47-.3-.75-.91-1.31-.94a3.25,3.25,0,0,0,.69,1.33c.25.29.62.36.93.57s.39.57.67.65.74-.29,1.12-.29S96,53,96.42,53s.92-.29,1.4-.2,1,.57,1.47.35A1.68,1.68,0,0,0,98.21,51.95Zm-1.75-2.22h0s0,0,0-.06l.08-.06,0,0Z"/><ellipse id="_Path_2" data-name="&lt;Path&gt;" class="cls-1" cx="119.8" cy="65.39" rx="0.17" ry="0.16" transform="translate(40.52 176.49) rotate(-83.11)"/><path id="_Path_3" data-name="&lt;Path&gt;" class="cls-1" d="M28.08,104.69l.06,0h0Z"/><path id="_Path_4" data-name="&lt;Path&gt;" class="cls-1" d="M28,104.73l.06,0h0l-.08,0Z"/><polygon id="_Path_5" data-name="&lt;Path&gt;" class="cls-1" points="21.05 58.2 21.05 58.2 21.05 58.2 21.05 58.2"/><path id="_Compound_Path_2" data-name="&lt;Compound Path&gt;" class="cls-1" d="M74.9.52A74.89,74.89,0,0,0,16.76,122.63h0a1.06,1.06,0,0,0,1.15.17c.82-.37,1.45-1.07,2.26-1.49a27.62,27.62,0,0,1,2.37-1.49l-.19.16a1.16,1.16,0,0,0-.09,1.78,1.27,1.27,0,0,1,.57,1.29q0,3.13,0,6.26c.36.34.71.7,1.08,1q0-3.16,0-6.33c0-.23,0-.47,0-.7s.06-.33.25-.31a3.91,3.91,0,0,1,1.31.19c.33.15.15.62.15.95q0,3.85,0,7.7l.71.62q0-4.18,0-8.37a1.94,1.94,0,0,1,.11-.94,1.88,1.88,0,0,1,.12,1q0,4.27,0,8.55c.77.63,1.55,1.25,2.35,1.85q0-5.91,0-11.82a1.45,1.45,0,0,1,.28-1,1.23,1.23,0,0,0,0-1.54c-.09-.13-.33-.23-.17-.42s.32-.08.48,0a1.36,1.36,0,0,0,1.6-.63,4.09,4.09,0,0,0,.64-1.65c.08-.36.08-.73.18-1.09h.62c0-.1,0-.21,0-.31a1,1,0,0,0,.54-.17,63.69,63.69,0,0,1,12.6-6.33c1.82-.7,3.68-1.25,5.51-1.9a10.93,10.93,0,0,0,2.64-1.16A25.23,25.23,0,0,0,52.72,110a1.11,1.11,0,0,1,.08.66c-.43,2.3,1,4.61,2.73,6.07,0-.08,0-.16.05-.24a96.7,96.7,0,0,0,8,6.94c.77.58,1.61,1.25,2.5,1.85a.51.51,0,0,0,.48.62,5.92,5.92,0,0,1,.66.08c.14.08.28.17.43.24l.06-.16c2.26.5,4.25,2.05,6.62,2.35a26.14,26.14,0,0,0,8.37-.81c2.34-.47,4.71-.74,7.05-1.22a26.31,26.31,0,0,0,3.56-1c.39-.14,2.76-.87,2.83-1.34,0,0,0,.09,0,.13.41-.28.8-.58,1.18-.89a19.17,19.17,0,0,0,3.45-2.34c.48-.43,1-.81,1.49-1.19,0,0,0,.08,0,.13l.25-.29c.45-.34.9-.69,1.32-1.08,1.74-1.6,3.41-3.55,3.75-5.93.38-.83.77-1.65.85-1.87a35.57,35.57,0,0,0,1.51-3.92c.37-1.59-.56-3.31.41-4.8,1.78-2.74,6.19-.56,8.73-1.2l.26-.06q1,.32,2,.73h.08c-2.41-1.12-.36-.35,1.08.13a57.54,57.54,0,0,1,8,1.64c1.11.21,2.22.46,3.31.76.85.32,1.69.65,2.56,1,1.23.5,2.48.94,3.74,1.36l.09,0,2.66.85A74.91,74.91,0,0,0,74.9.52ZM22.54,111.86c0-.12,0-.23,0-.35a3.23,3.23,0,0,0-.27-1.33c0-.14.11-.24.39-.16a16.63,16.63,0,0,0,6.35.34,12.07,12.07,0,0,0-1.14,3.2,17.31,17.31,0,0,0-.34,2.94h.09a7,7,0,0,0,.41,2.23c.08.22,0,.33-.21.32h-.13a4.33,4.33,0,0,1-.77,0,10.44,10.44,0,0,0-.38-2.43,6.05,6.05,0,0,1-.09-1.73,1.89,1.89,0,0,0-.06-1c-.47-1-2.47-1.42-3.76-1.31A4.65,4.65,0,0,0,22.54,111.86Zm4,9.41a7.5,7.5,0,0,1-3-.05A2,2,0,0,1,23,121c-.23-.14-.66-.26-.41-.64s.44.06.64.17a4.62,4.62,0,0,0,2.42.42,8.07,8.07,0,0,0,2.27-.3.25.25,0,0,1,.31.08A3.45,3.45,0,0,1,26.52,121.27Zm4.76-5.9c-.33-.23-.56-.23-.74,0h-.26l0,.07a2.72,2.72,0,0,0,.08,1.88c.17.41.43.65.94.37a10.37,10.37,0,0,1-.56,1.07c-.47.7-1.1.68-1.59,0a2.67,2.67,0,0,1-.41-.93,6.57,6.57,0,0,1-.18-2,5.34,5.34,0,0,1,.27-1.16c.19-.51.45-1,1.06-1.11s.83.43,1.14.81a2.24,2.24,0,0,1,.45,1ZM41,81c-.57,3.06-1.2,6.12-1.81,9.17-.87,4.35-1.74,8.7-2.59,13.06a5.65,5.65,0,0,1-.82,1.83,21.9,21.9,0,0,1-2,2.94,1.53,1.53,0,0,1-1.78.57,7,7,0,0,1-1.82-.84c-.27-.18-.3-.34,0-.58a10.73,10.73,0,0,0,2.26-2.94,11.28,11.28,0,0,0,.91-2,3.07,3.07,0,0,0,.16-1.09,6,6,0,0,1-.18-.93,1.5,1.5,0,0,1,.42-.9,2,2,0,0,0,.35-.45c.2-.37.26-.53.74-.27s.89.77,1.34.67.61-1.2.53-1.63c-.12-.71-1-.93-1.52-1.26-.88-.53-2-1.43-1.74-2.6.2-.91,1.22-1.05,2-.93.29-.21.7.3,1,.48,1.22.74,1,.55,1.28-.57A1.09,1.09,0,0,0,37,91.24a9.18,9.18,0,0,1-.87-.52.77.77,0,0,1-.22-.18,1.16,1.16,0,0,1-.49-1.23c.13-1.09.73-2.34,2-1.68.35.19.88.61,1.21.22a1.63,1.63,0,0,0-.16-1.68,9.69,9.69,0,0,1-1.1-.64,7.64,7.64,0,0,1-.77-1c-.9-1.05.51-3,1.75-2.14.3.2.73.78,1.07.54a.88.88,0,0,0,0-1.29c-.52-.35-1.07-.67-1.6-1a17,17,0,0,0-6.44-2.56l0-.06a23.32,23.32,0,0,0-4.65-.54c-.56,0-.79.2-.9.73s0,.71.56.72a24.11,24.11,0,0,1,5.92.8c.77.22,1.77.39,2.18,1.17a2.08,2.08,0,0,1-.85,2.67c-.41.18-.43,0-.86-.12a27.68,27.68,0,0,0-7.16-1.12c-.36,0-.53,0-.73.28A2,2,0,0,0,24.55,84c.24.71,2.07.47,2.66.53a28.08,28.08,0,0,1,3.63.61c.82.19,2.09.15,2.66.87s-.08,2.06-.66,2.68a.52.52,0,0,1-.42.18c-.16.12-.4,0-.6-.09a28,28,0,0,0-6.22-1.08c-.72,0-1.06.62-1.15,1.24-.11.84.41.84,1.12.92a39,39,0,0,1,4.2.68c1,.22,2.11.36,2.53,1.38.32.78.2,2.72-1,2.62l-.12,0a.76.76,0,0,1-.43-.05,27.43,27.43,0,0,0-3.93-.89c-1.24-.17-2.49-.29-3.74-.46-.77-.1-1.15,1.13-1,1.76s.93.44,1.34.48a32,32,0,0,1,6.47,1.21c.36.11,1.14.29.63.8a4.21,4.21,0,0,1,.34,1.25c-.08.76-.65.93-1.31,1,.54.17,2.11.24,2.43.76s-.34,1.17-.49,1.53a9.62,9.62,0,0,1-1.09,2c-.44.6-.73.61-1.24.07-.18-.19-.3-.53-.61-.46s-.31.45-.38.73L28,105a7.28,7.28,0,0,1-.34-2.71,3.49,3.49,0,0,0,0-.54,1.07,1.07,0,0,0-.94-1.06c-.61,0-.79.49-.83,1a7.68,7.68,0,0,0,.36,3.45,8.18,8.18,0,0,0,2.95,3.77,1.17,1.17,0,0,1-1.35-.19,7.67,7.67,0,0,1-3.13-5.22,10.87,10.87,0,0,1-.12-2.41c0-.58-.23-.84-.77-.86a.79.79,0,0,0-.93.82,8.55,8.55,0,0,0,3,7.38l.66.54a1.26,1.26,0,0,1-1.33-.28A8.6,8.6,0,0,1,22,102.23a9.3,9.3,0,0,1,0-1.48c.06-.62-.22-.88-.79-.92s-.87.3-.91.84a8.86,8.86,0,0,0,.73,4.34,10,10,0,0,0,2.77,3.62,1.27,1.27,0,0,1-1.34-.53,10.25,10.25,0,0,1-2.77-7.3c0-.54,0-1-.68-1.1s-.84.13-.89.71A8.86,8.86,0,0,0,20.36,107c.24.29.51.56.83.91a2,2,0,0,1-1.25-.62,8.92,8.92,0,0,1-2.53-7c0-.45-.13-.7-.55-.77a.63.63,0,0,0-.75.6,6.23,6.23,0,0,0,.16,2.8,10.57,10.57,0,0,0,2,3.51,4,4,0,0,1-2.14-2.5,9.58,9.58,0,0,1-.56-3.77c0-.38,0-.75-.38-1h0c0-.06,0-.11,0-.17s0-.37,0-.55h0c.07-.31.31-.41.61-.41,1.05,0,2.11,0,3.16.06.45,0,.68-.11.74-.55.08-.6.64-1.65-.22-1.93-1.06-.34-2.3,1-3.29.13-.64-.53.32-.64.72-.66a19.89,19.89,0,0,1,2.67,0c.52,0,.71-.19.81-.66C20.74,93,20.75,93,19.23,93c-.65,0-1.45.28-2-.25a1.55,1.55,0,0,1-.12-1.6c.14-.41.11-1,.49-1.3s1-.18,1.46-.15,2,.38,2.17-.17a4,4,0,0,0-.1-1.1c0-.36,0-.72,0-1.07l-1.2-.12c-1.08-.12-2.3.13-2-1.44s2.09-1.3,3.25-1.37A2.73,2.73,0,0,0,23,83c.1-.39.06-.66-.46-.63a10.92,10.92,0,0,0-2.1.34c-.5.13-1.2.24-1.45-.35-.33-.81-.17-2.71.91-2.9a24.82,24.82,0,0,0,2.6-.39c.43-.13,1.12-.09,1.43-.48,1-1.32-1.64-.84-2.1-.79a5.52,5.52,0,0,1-1.57.16c-.4-.11-.23-.3-.08-.71a6.53,6.53,0,0,1,1.33-2.47,6.2,6.2,0,0,1,3.82-2.2A4.69,4.69,0,0,0,23.14,75c-.13.42-.29,1.18.35,1.27.89.12,1.3-.75,1.57-1.4a4.19,4.19,0,0,1,2.46-2.38,4.49,4.49,0,0,1,1.39-.39c.25,0,1.46.21,1.38.57a1.48,1.48,0,0,1,.37,0c-.24,0-.84.53-1,.68a5,5,0,0,0-.9.94c-.38.52-1,1.51-.13,1.89a1.06,1.06,0,0,0,1.48-.49,3.92,3.92,0,0,1,3-2.41l.08,0a3.15,3.15,0,0,1,1.82,0l.09,0a.44.44,0,0,1,.45.44,2.54,2.54,0,0,1,.34-.07l.5.05.1,0a4.18,4.18,0,0,0-1.15.6,3.44,3.44,0,0,1-.87.82,7.28,7.28,0,0,0-.87,1.33,1.2,1.2,0,0,0,.08,1.39,1,1,0,0,0,1.12.44,1.21,1.21,0,0,0,.94-1.11c.06-.46,0-.94,0-1.41,0-.13,0-.31.1-.37s.29,0,.41.13a5.76,5.76,0,0,1,1.09,1.27c.43.6.83,1.23,1.29,1.81.76,1,1.3.91,2-.11a7.28,7.28,0,0,0,.34-.66,7.73,7.73,0,0,1,.16,1.16A7.9,7.9,0,0,1,41,81Zm10.7-35.71h0a1.23,1.23,0,0,1-.46.17c.06-.28.12-.56.18-.83a2.52,2.52,0,0,1,1.6-1c1.78-.38,3.62-.53,5.42-.87a7.39,7.39,0,0,1,3.93.23l.47.21a.44.44,0,0,1,.25.49.8.8,0,0,1-.12.34c-.57.89-.93,1-2,.89a14.44,14.44,0,0,0-5,.69,20.34,20.34,0,0,1-2.07.5.51.51,0,0,1-.4,0c-.19-.13-.17-.49-.39-.54s-.43.4-.69.34S52.24,45,51.71,45.34Zm69.54,31.17c-.33.71-4.56,8.18-6.09,9.55-1,.91-1.39,2.39-2.46,3.26-1.95,1.59-3.1-.66-4.63-1.55-2,2.45-2.69,5.57-3.15,8.63-.27,1.77-.93,4.27-.75,6,.12,1.15.77,2.23.84,3.46.08,1.39,0,4.12-1.59,4.82-1,.48-1.76-.54-2.7.6-1.44,1.75-.43,4.66-1.61,6.52-.9,1.42-3.5,1.81-5,2.59-2.86,1.48-6.26,1.35-9.25,2.56a50,50,0,0,1-9,2.8l-.37,0a11,11,0,0,0,1.9-.78c1.69-.9,2.11-2,3.23-3.41,1.3-1.58,2.69-.82,4.13-1.82,1.6-1.11,2.9-2.63,4.54-3.67s3.54-1.29,5.22-2.17c3.06-1.6,1.23-3.93,1.75-6.61.15-.78.81-1.17,1.15-1.83.44-.84.2-1.49.44-2.35.29-1.05,1.12-.92,1.79-1.6a6,6,0,0,0,1-2.17c.38-.89,1.13-1.55,1.52-2.43s.08-1.94.66-2.67a4.72,4.72,0,0,1,.85-.7,2,2,0,0,0,.66-1,6,6,0,0,0,.06-1.89q.86-1.25,1.79-2.47a.42.42,0,0,0,0-.47,1.45,1.45,0,0,1,.27.18c-.53-.46,1-2.72,2.39-1.12.4.47.85,1.05,1.47,1a.43.43,0,0,0,.25-.07c.31-.23-.08-.68-.4-.89-1.86-1.23-2-3.63-1.8-5.64.08-.79.27-2.1,1-2.54,1-.6,2,.69,2.77,1.15s2,.83,1.8,1.89a3.29,3.29,0,0,0,1-.38,10.68,10.68,0,0,0,1.27-1.82,22,22,0,0,0,3.19-4.71c.2-.49,1.31-2.48.55-2.81-1.37-.6-1.76,3.33-2.58,3.87-.25.17-.86.09-1,.2a1.85,1.85,0,0,0,.35-.57,1,1,0,0,0-1,.35,2.1,2.1,0,0,1,0-1.1c.21-.32.71-.33.73-.86s-.9-1-.87-1.69c0-.11.34-.52.4-.68a4.88,4.88,0,0,0,.06-2.07,12.71,12.71,0,0,0-1-3.78,3.07,3.07,0,0,1-.37-1.1.29.29,0,0,1,0-.18c.35-.49.9-.59,1.18-1.31a5.77,5.77,0,0,1,.56-1.25,1.29,1.29,0,0,1,1.15-.61,1.58,1.58,0,0,1,1.08,1,5.27,5.27,0,0,1,.44,1.39,1.45,1.45,0,0,0,.33.88,1.94,1.94,0,0,0,.79.3c.77.23.54,1.21,1.15,1.63a.3.3,0,0,0,.24.06c.13,0,.18-.19.2-.32a15.22,15.22,0,0,0,.23-4.71c-.15-1.35-.65-2.88-1.93-3.32a3.22,3.22,0,0,0-2.66.53,7.21,7.21,0,0,0-2.1,2.32c-.45.68-1.16,2.1-2.1,2.14-.42,0-.88-.26-1.24,0a.94.94,0,0,0-.29.33,7.73,7.73,0,0,0-.9,3.54,17.38,17.38,0,0,1-.36,3.72A20.41,20.41,0,0,1,109,74.63a1.34,1.34,0,0,1-.33.46c-.35.28-1.24.12-1.25.72,0,.21.08.41.1.61,0,.6-.49,1.08-1,1.43a38.74,38.74,0,0,1-4.3,2.83c-.87.47-1.49,1.23-2.29,1.76-.64.42-1.53.47-2.06,1.07S97,85.07,96.5,85.77a7.63,7.63,0,0,1-2.06,1.77c-1.76,1.11-5.1,2.9-7.26,2.45-1.3-.27-1.67-1.22-3-.75A17.9,17.9,0,0,1,74,89.91a21.65,21.65,0,0,1-3.58-.79,8.33,8.33,0,0,0-3.62-.77,18.07,18.07,0,0,0-1.88.49c-1.18.26-2.23-.23-3.34.19-.63.24-1.85.9-2.27,0-.29-.63.45-1.31.76-1.78a7.44,7.44,0,0,1,3.72-3.1,22,22,0,0,1,6.72-1.51c1.89-.05,3.17-1,4.87-1.57.93-.3-.34-1.05-.78-1s-.68.1-1,.15c-1.71.22-3.27-.85-4.93-1.09a13.89,13.89,0,0,0-5.23.33l-1.22.29c-.75.18-1.51.37-2.25.57-1.11.3-3.61.75-2.14-1A11.23,11.23,0,0,1,62,76.54a.48.48,0,0,1,.21,0c.5,0,1.06.31,1.4-.35,0-.09.34,0,.23-.21a.4.4,0,0,0-.1-.13l-.37,0a1,1,0,0,1-.77-.08l-.59,0a.49.49,0,0,1-.49-.41l0,0c-.07-.07-.09-.18,0-.23l.08-.06a.47.47,0,0,1,.3-.3.5.5,0,0,1,.25-.11c2.31-.28,4.57-1,6.89-1.33a18.19,18.19,0,0,1,2.59.26c.71,0,6.29-.46,6.22.92,0,0-.6.23-.88.35,0,0-2,.55-2.73.59a7.79,7.79,0,0,0-2.29.55.47.47,0,0,0,.36.23c.39,0,.76.13,1.16.08,1.55-.2,3.17,0,4.72-.13a5.69,5.69,0,0,0,1.09-.22c.4-.4,3.2-1.2,3.68-.79.2.18.33.42.53.61s3.52,1.86,3.58,1.58c0,.2,1.44,0,1.58,0a1.79,1.79,0,0,0,.86-.93c.33-.74.22-1.75-.68-1.95s-1.7-.85-2.71-1.14a6.91,6.91,0,0,1-2.14-1c-2.58-1.79-5.53-2.24-8.53-3-.25-.07-.41.13-.54.29-.79,1-.84,1.23-2.24,1.14-.71,0-1.4-.2-2.1-.31-.44-.07-1.43,0-1.78-.26s.34-.87.63-1a12,12,0,0,1,1.72-.53c.11,0,.32-.1.35-.09s.2,0,.19-.17-.36-.52-.54-.51a4.44,4.44,0,0,0-1.19.33,18,18,0,0,1-4.11.63c-.81.06-1.58.33-2.38.45s-1.57,0-2.36.06a6.61,6.61,0,0,0-3.32,1.39,16,16,0,0,1-1.75.64c-.54.28-.9.89-1.51,1,0,0,.81-3.27,1-3.62.92-1.59,2.28-3.46,3.8-4.1s3.06,1,4.65.87c2.84-.29,3.47-1.49,5.25-2.14a17.79,17.79,0,0,1,5-1,7.05,7.05,0,0,0,3.19-.59A4.06,4.06,0,0,1,78.8,61c.52-.06.9.32,1.4.38a.41.41,0,0,0,.27,0c.18-.12.14-.4.07-.6a5.41,5.41,0,0,0-1-1.66,1.45,1.45,0,0,0-1-.6,2.15,2.15,0,0,0-.77.19c-1.71.59-3.32-.27-5-.32a12.31,12.31,0,0,0-4.87.86,15.63,15.63,0,0,1-4,1.43,6.54,6.54,0,0,1-2.85-.41c-1.67-.59-2.82-.66-4.16.67s-2.08,3.23-3,5c-.28.57-.56,1.14-.83,1.72v-.16a1.17,1.17,0,0,1-.42-.92,6.18,6.18,0,0,0,0-1.07c-.18-1.6-.66-3.11.05-4.66a13.18,13.18,0,0,1,2.39-3.19,29,29,0,0,1,2.55-3,27.55,27.55,0,0,0,6.89-9.16A4.62,4.62,0,0,0,65,44.24a6.65,6.65,0,0,0-.72-5,1.45,1.45,0,0,0-.47-.58c-.17-.1-.38-.14-.55-.25a1.12,1.12,0,0,1-.4-.8,3.83,3.83,0,0,0-.15-.91c-.39-1-3.49-.55-4.33-.46a16.66,16.66,0,0,0-4.56,1.12c-.35.14-.7.3-1.07.41.1-1,.21-2,.35-2.84.4-2.27.16-7,6.92-12.9,0,0,8-7.26,14-8.56s15.15-.88,21,2.14,14.93,9.88,14.93,9.88,7.58,5.87,9.94,11.69c1.32,3.26,1.4,9.26,1.22,14-.53.5-.65,1.79-1.08,2.21a2.19,2.19,0,0,1-.73.43A12,12,0,0,0,117,55c-1.95,1.37.64,1.66,1.83,2a8.65,8.65,0,0,1,2.48,1.57c.93.91,2.53,3.13,2.49,7.55A21.35,21.35,0,0,1,121.24,76.51Z"/><path id="_Path_6" data-name="&lt;Path&gt;" class="cls-1" d="M52.57,112.62A36.3,36.3,0,0,0,54,121.87a.46.46,0,0,0,.9-.23c-.64-3.06-1-6.79.53-8.57a.46.46,0,0,0-.31-.75l-2-.17A.46.46,0,0,0,52.57,112.62Z"/><path id="_Path_7" data-name="&lt;Path&gt;" class="cls-1" d="M99.46,126c2.86-3.75,6.61-9.34,8-14.43l2.17-4s1.22,10.35-9.15,19.42A.71.71,0,0,1,99.46,126Z"/></g></g></svg>